<?xml version="1.0" encoding="utf-8"?>
<svg width="60px" height="60px" viewBox="0 0 60 60" version="1.1" xmlns:xlink="http://www.w3.org/1999/xlink" xmlns="http://www.w3.org/2000/svg">
  <desc>Created with Lunacy</desc>
  <g id="thingiverse">
    <path d="M0 0L38 0L38 38L0 38L0 0Z" id="Rectangle-path" fill="none" stroke="none" />
    <path d="M19.9999 10.0261C20.026 4.56968 15.422 -0.149656 9.9637 0.00363301C4.52173 -0.126826 -0.075747 4.56968 0.00576846 9.83694C-0.189869 15.4662 4.61955 20.0453 10.0485 19.9997C15.5168 19.9155 19.9264 15.496 19.9999 10.0261ZM6.70794 17.8973C3.50133 16.5663 1.4156 13.4302 1.4274 9.95762C1.42557 5.25697 5.22517 1.44034 9.92457 1.42237C13.3962 1.39594 16.5402 3.46898 17.8843 6.67079C19.2285 9.8726 18.5067 13.5693 16.057 16.03C13.6073 18.4907 9.91456 19.2283 6.70794 17.8973Z" transform="translate(9 9)" id="Shape" fill="#FFFFFF" fill-rule="evenodd" stroke="none" />
    <path d="M5.00332 0.00325328L9.69144 0.00325328C9.98009 0.00325328 10 0.022773 10 0.305808L10 2.21223C10 2.47249 9.97346 2.50177 9.70803 2.49852C8.62641 2.49852 7.54147 2.49852 6.45985 2.49852C6.32382 2.49852 6.27405 2.54732 6.27737 2.6742C6.28069 2.80108 6.27737 2.89542 6.27737 2.99953L6.27737 10.7651C6.27737 10.9701 6.24751 10.9961 6.04181 10.9993L3.91175 10.9993C3.86597 11.0036 3.8207 10.9873 3.78851 10.9551C3.75633 10.9229 3.74065 10.8782 3.74585 10.8334C3.74585 10.7456 3.74585 10.6578 3.74585 10.5667L3.74585 2.71974C3.74585 2.50177 3.74585 2.49852 3.51692 2.49852L0.331785 2.49852C0.0331785 2.49852 0 2.46599 0 2.17319C0 1.54856 0 0.923932 0 0.299302C0 0.0260263 0.0298607 0 0.298607 0L5.00332 0.00325328Z" transform="translate(14 13)" id="Shape" fill="#FFFFFF" stroke="none" />
  </g>
</svg>